<svg width="1225" height="2179" viewBox="0 0 1225 2179" fill="none" xmlns="http://www.w3.org/2000/svg">
<rect width="1224.52" height="2178.51" rx="36" fill="#FFFEF2"/>
<mask id="mask0_468_20" style="mask-type:alpha" maskUnits="userSpaceOnUse" x="0" y="0" width="1225" height="2179">
<path d="M0 12C0 5.37262 5.37258 0 12 0H1188.52C1208.41 0 1224.52 16.1177 1224.52 36V2142.51C1224.52 2162.39 1208.41 2178.51 1188.52 2178.51H36C16.1178 2178.51 0 2162.39 0 2142.51V12Z" fill="#FFFEF2"/>
</mask>
<g mask="url(#mask0_468_20)">
<path d="M794.227 70.4019C751.195 45.0888 776.297 7.11906 794.227 -8.70166H1224.55V405.801C1222.97 465.92 1120.13 429.532 1148.61 369.413C1177.09 309.295 1074.25 233.355 1052.1 318.787C1029.96 404.219 816.376 326.698 865.42 220.699C914.465 114.7 848.018 102.043 794.227 70.4019Z" fill="#FFEEF0"/>
<path d="M-38.3259 1050.14C-48.7181 1098.97 -92.6808 1087.18 -113.363 1075.18L-280.396 972.793C-348.586 930.994 -367.961 840.661 -322.909 774.574L-276.149 705.981C-258.9 680.678 -233.83 661.729 -204.781 652.036L143.635 535.787C201.164 518.261 199.194 627.326 133.153 619.34C67.1114 611.354 27.6227 732.937 115.673 726.908C203.723 720.88 197.784 948.015 81.7121 935.041C-34.36 922.066 -25.3356 989.103 -38.3259 1050.14Z" fill="#FCF5F3"/>
<path d="M450.015 1432.15C495.534 1452.66 474.687 1493.12 458.574 1510.79L323.103 1652.32C267.797 1710.09 175.41 1709.88 120.377 1651.84L63.2567 1591.6C42.1857 1569.38 28.982 1540.86 25.6688 1510.42L-14.0697 1145.27C-19.0012 1085.34 87.1666 1110.39 65.3609 1173.23C43.5551 1236.08 154.002 1300.45 166.778 1213.12C179.554 1125.79 400.267 1179.75 362.979 1290.44C325.691 1401.12 393.117 1406.51 450.015 1432.15Z" fill="#FFF7E9"/>
<path d="M1042.19 784.913C1060.72 743.75 1101.6 751.785 1128.83 778.141L1233.68 884.641C1288.48 940.297 1287.14 1030.03 1230.7 1084.02L1183.65 1129.04C1166.23 1145.7 1144.81 1157.59 1121.45 1163.54L854.318 1231.64C731.708 1252.21 775.74 1087.68 829.062 1109.83C882.384 1131.98 939.848 1032.58 865.38 1017.92C790.912 1003.26 841.834 802.141 935.766 840.121C1029.7 878.101 1019.02 836.368 1042.19 784.913Z" fill="#FAF3FF"/>
<path d="M753.042 1870.44C882.139 1827.4 867.742 1875.97 901.757 1759.69C952.174 1587.34 1177.04 1661.6 1139.07 1759.69C1101.1 1857.78 1123.25 1870.44 1177.04 1911.57C1230.83 1952.7 1256.32 2013.98 1080.46 2013.98C927 2013.98 1028.32 2076.1 987.189 2161.54C946.055 2246.97 829.458 2169.83 813.161 2076.1C794.106 1966.51 741.898 2045.62 684.943 2028.22C633.461 2012.49 623.945 1913.47 753.042 1870.44Z" fill="#FFF4E8"/>
</g>
</svg>
