<svg width="36" height="36" viewBox="0 0 36 36" fill="none" xmlns="http://www.w3.org/2000/svg">
<rect width="36" height="36" fill="#F1F1F1"/>
<circle cx="17.803" cy="12.9518" r="4.40164" fill="#363636"/>
<circle cx="17.8031" cy="8.5502" r="0.550204" fill="#363636"/>
<circle r="0.550204" transform="matrix(-1 0 0 1 17.2535 8.5502)" fill="#363636"/>
<circle cx="18.9037" cy="8.5502" r="0.550204" fill="#363636"/>
<circle r="0.550204" transform="matrix(-1 0 0 1 16.1529 8.5502)" fill="#363636"/>
<circle cx="20.0043" cy="9.10038" r="0.550204" fill="#363636"/>
<circle r="0.550204" transform="matrix(-1 0 0 1 15.6021 9.10038)" fill="#363636"/>
<circle cx="21.1049" cy="9.65067" r="0.550204" fill="#363636"/>
<circle r="0.550204" transform="matrix(-1 0 0 1 14.5025 9.65067)" fill="#363636"/>
<circle cx="21.6547" cy="10.751" r="0.550204" fill="#363636"/>
<circle r="0.550204" transform="matrix(-1 0 0 1 13.9527 10.2008)" fill="#363636"/>
<circle cx="22.2055" cy="11.8515" r="0.550204" fill="#363636"/>
<circle r="0.550204" transform="matrix(-1 0 0 1 13.4019 11.3012)" fill="#363636"/>
<circle cx="22.2055" cy="12.9519" r="0.550204" fill="#363636"/>
<circle r="0.550204" transform="matrix(-1 0 0 1 13.4019 12.4016)" fill="#363636"/>
<circle cx="22.2055" cy="14.0522" r="0.550204" fill="#363636"/>
<circle r="0.550204" transform="matrix(-1 0 0 1 13.4019 13.502)" fill="#363636"/>
<circle cx="21.6547" cy="15.1526" r="0.550204" fill="#363636"/>
<circle r="0.550204" transform="matrix(-1 0 0 1 13.9527 14.6025)" fill="#363636"/>
<circle cx="21.1049" cy="16.2531" r="0.550204" fill="#363636"/>
<circle r="0.550204" transform="matrix(-1 0 0 1 14.5025 15.7029)" fill="#363636"/>
<rect x="16.7031" y="16.2531" width="2.20082" height="2.20082" fill="#C1C1C1"/>
<path d="M25.1398 25.945C21.9761 25.945 17.8037 27.8073 17.8037 27.8073V17.565C17.8037 17.565 21.9302 15.7028 26.0568 15.7028L25.1398 25.945Z" fill="#363636"/>
<path d="M10.4678 25.945C13.6315 25.945 17.8038 27.8073 17.8038 27.8073V17.565C17.8038 17.565 13.6773 15.7028 9.55078 15.7028L10.4678 25.945Z" fill="#636363"/>
<path d="M17.8036 16.8032C19.9307 16.8032 21.655 15.0789 21.655 12.9518C21.655 10.8247 19.9307 9.10034 17.8036 9.10034C15.6765 9.10034 13.9521 10.8247 13.9521 12.9518C13.9521 15.0789 15.6765 16.8032 17.8036 16.8032Z" fill="#C1C1C1"/>
<path d="M25.6799 22.3052H26.1432C26.4212 22.3052 26.6065 22.1218 26.6065 21.8467V20.0127C26.6065 19.7376 26.4212 19.5542 26.1432 19.5542H25.6799C24.8922 19.5542 24.2899 20.1503 24.2899 20.9297C24.2899 21.7092 24.8922 22.3052 25.6799 22.3052ZM9.92666 19.5542H9.46333C9.18533 19.5542 9 19.7376 9 20.0127V21.8467C9 22.1218 9.18533 22.3052 9.46333 22.3052H9.92666C10.7143 22.3052 11.3167 21.7092 11.3167 20.9297C11.3167 20.1503 10.7143 19.5542 9.92666 19.5542Z" fill="#C1C1C1"/>
<path d="M19.2883 14.2022C19.1968 14.6357 18.7159 15.0026 18.0786 15.0026C17.4412 15.0026 16.9604 14.6357 16.8689 14.2022L19.2883 14.2022Z" fill="#C1C1C1" stroke="#363636" stroke-width="0.3"/>
<path d="M19.4539 12.4015C19.4539 12.0977 19.2076 11.8513 18.9037 11.8513C18.5999 11.8513 18.3535 12.0977 18.3535 12.4015" stroke="#363636" stroke-width="0.5"/>
<path d="M17.2537 12.4015C17.2537 12.0977 17.0074 11.8513 16.7035 11.8513C16.3997 11.8513 16.1533 12.0977 16.1533 12.4015" stroke="#363636" stroke-width="0.5"/>
</svg>
